<mxfile host="app.diagrams.net" modified="2024-08-04T15:17:51.942Z" agent="Mozilla/5.0 (Windows NT 10.0; Win64; x64) AppleWebKit/537.36 (KHTML, like Gecko) Chrome/127.0.0.0 Safari/537.36" etag="u4CmqY2Mn79ql82zbElz" version="24.7.1" type="device">
  <diagram name="Page-1" id="k2vCAx_4na_RaRtOpBaE">
    <mxGraphModel dx="1687" dy="908" grid="1" gridSize="10" guides="1" tooltips="1" connect="1" arrows="1" fold="1" page="1" pageScale="1" pageWidth="850" pageHeight="1100" math="0" shadow="0">
      <root>
        <mxCell id="0" />
        <mxCell id="1" parent="0" />
        <mxCell id="v4m964qEt5kO4kLqrfOP-5" value="Region" style="sketch=0;outlineConnect=0;gradientColor=none;html=1;whiteSpace=wrap;fontSize=12;fontStyle=0;shape=mxgraph.aws4.group;grIcon=mxgraph.aws4.group_region;strokeColor=#879196;fillColor=none;verticalAlign=top;align=left;spacingLeft=30;fontColor=#879196;dashed=1;" vertex="1" parent="1">
          <mxGeometry x="270" y="30" width="970" height="620" as="geometry" />
        </mxCell>
        <mxCell id="v4m964qEt5kO4kLqrfOP-1" value="VPC" style="points=[[0,0],[0.25,0],[0.5,0],[0.75,0],[1,0],[1,0.25],[1,0.5],[1,0.75],[1,1],[0.75,1],[0.5,1],[0.25,1],[0,1],[0,0.75],[0,0.5],[0,0.25]];outlineConnect=0;gradientColor=none;html=1;whiteSpace=wrap;fontSize=12;fontStyle=0;container=1;pointerEvents=0;collapsible=0;recursiveResize=0;shape=mxgraph.aws4.group;grIcon=mxgraph.aws4.group_vpc2;strokeColor=#8C4FFF;fillColor=none;verticalAlign=top;align=left;spacingLeft=30;fontColor=#AAB7B8;dashed=0;" vertex="1" parent="1">
          <mxGeometry x="430" y="120" width="690" height="490" as="geometry" />
        </mxCell>
        <mxCell id="v4m964qEt5kO4kLqrfOP-2" value="Availability zone 1" style="sketch=0;outlineConnect=0;gradientColor=none;html=1;whiteSpace=wrap;fontSize=12;fontStyle=0;shape=mxgraph.aws4.group;grIcon=mxgraph.aws4.group_availability_zone;strokeColor=#545B64;fillColor=none;verticalAlign=top;align=left;spacingLeft=30;fontColor=#545B64;dashed=1;" vertex="1" parent="v4m964qEt5kO4kLqrfOP-1">
          <mxGeometry x="80" y="130" width="160" height="320" as="geometry" />
        </mxCell>
        <mxCell id="v4m964qEt5kO4kLqrfOP-6" value="Public subnet" style="points=[[0,0],[0.25,0],[0.5,0],[0.75,0],[1,0],[1,0.25],[1,0.5],[1,0.75],[1,1],[0.75,1],[0.5,1],[0.25,1],[0,1],[0,0.75],[0,0.5],[0,0.25]];outlineConnect=0;gradientColor=none;html=1;whiteSpace=wrap;fontSize=12;fontStyle=0;container=1;pointerEvents=0;collapsible=0;recursiveResize=0;shape=mxgraph.aws4.group;grIcon=mxgraph.aws4.group_security_group;grStroke=0;strokeColor=#7AA116;fillColor=#F2F6E8;verticalAlign=top;align=left;spacingLeft=30;fontColor=#248814;dashed=0;" vertex="1" parent="v4m964qEt5kO4kLqrfOP-1">
          <mxGeometry x="95" y="170" width="130" height="130" as="geometry" />
        </mxCell>
        <mxCell id="v4m964qEt5kO4kLqrfOP-40" style="edgeStyle=orthogonalEdgeStyle;rounded=0;orthogonalLoop=1;jettySize=auto;html=1;" edge="1" parent="v4m964qEt5kO4kLqrfOP-6" source="v4m964qEt5kO4kLqrfOP-13">
          <mxGeometry relative="1" as="geometry">
            <mxPoint x="185" y="110" as="targetPoint" />
          </mxGeometry>
        </mxCell>
        <mxCell id="v4m964qEt5kO4kLqrfOP-13" value="" style="sketch=0;outlineConnect=0;fontColor=#232F3E;gradientColor=none;fillColor=#8C4FFF;strokeColor=none;dashed=0;verticalLabelPosition=bottom;verticalAlign=top;align=center;html=1;fontSize=12;fontStyle=0;aspect=fixed;pointerEvents=1;shape=mxgraph.aws4.nat_gateway;" vertex="1" parent="v4m964qEt5kO4kLqrfOP-6">
          <mxGeometry x="46" y="52" width="38" height="38" as="geometry" />
        </mxCell>
        <mxCell id="v4m964qEt5kO4kLqrfOP-10" value="Private subnet" style="points=[[0,0],[0.25,0],[0.5,0],[0.75,0],[1,0],[1,0.25],[1,0.5],[1,0.75],[1,1],[0.75,1],[0.5,1],[0.25,1],[0,1],[0,0.75],[0,0.5],[0,0.25]];outlineConnect=0;gradientColor=none;html=1;whiteSpace=wrap;fontSize=12;fontStyle=0;container=1;pointerEvents=0;collapsible=0;recursiveResize=0;shape=mxgraph.aws4.group;grIcon=mxgraph.aws4.group_security_group;grStroke=0;strokeColor=#00A4A6;fillColor=#E6F6F7;verticalAlign=top;align=left;spacingLeft=30;fontColor=#147EBA;dashed=0;" vertex="1" parent="v4m964qEt5kO4kLqrfOP-1">
          <mxGeometry x="95" y="310" width="130" height="130" as="geometry" />
        </mxCell>
        <mxCell id="v4m964qEt5kO4kLqrfOP-7" value="Availability zone 2" style="sketch=0;outlineConnect=0;gradientColor=none;html=1;whiteSpace=wrap;fontSize=12;fontStyle=0;shape=mxgraph.aws4.group;grIcon=mxgraph.aws4.group_availability_zone;strokeColor=#545B64;fillColor=none;verticalAlign=top;align=left;spacingLeft=30;fontColor=#545B64;dashed=1;" vertex="1" parent="v4m964qEt5kO4kLqrfOP-1">
          <mxGeometry x="320" y="130" width="160" height="320" as="geometry" />
        </mxCell>
        <mxCell id="v4m964qEt5kO4kLqrfOP-8" value="Public subnet" style="points=[[0,0],[0.25,0],[0.5,0],[0.75,0],[1,0],[1,0.25],[1,0.5],[1,0.75],[1,1],[0.75,1],[0.5,1],[0.25,1],[0,1],[0,0.75],[0,0.5],[0,0.25]];outlineConnect=0;gradientColor=none;html=1;whiteSpace=wrap;fontSize=12;fontStyle=0;container=1;pointerEvents=0;collapsible=0;recursiveResize=0;shape=mxgraph.aws4.group;grIcon=mxgraph.aws4.group_security_group;grStroke=0;strokeColor=#7AA116;fillColor=#F2F6E8;verticalAlign=top;align=left;spacingLeft=30;fontColor=#248814;dashed=0;" vertex="1" parent="v4m964qEt5kO4kLqrfOP-1">
          <mxGeometry x="335" y="170" width="130" height="130" as="geometry" />
        </mxCell>
        <mxCell id="v4m964qEt5kO4kLqrfOP-12" value="" style="sketch=0;outlineConnect=0;fontColor=#232F3E;gradientColor=none;fillColor=#8C4FFF;strokeColor=none;dashed=0;verticalLabelPosition=bottom;verticalAlign=top;align=center;html=1;fontSize=12;fontStyle=0;aspect=fixed;pointerEvents=1;shape=mxgraph.aws4.nat_gateway;" vertex="1" parent="v4m964qEt5kO4kLqrfOP-8">
          <mxGeometry x="46" y="52" width="38" height="38" as="geometry" />
        </mxCell>
        <mxCell id="v4m964qEt5kO4kLqrfOP-9" value="Private subnet" style="points=[[0,0],[0.25,0],[0.5,0],[0.75,0],[1,0],[1,0.25],[1,0.5],[1,0.75],[1,1],[0.75,1],[0.5,1],[0.25,1],[0,1],[0,0.75],[0,0.5],[0,0.25]];outlineConnect=0;gradientColor=none;html=1;whiteSpace=wrap;fontSize=12;fontStyle=0;container=1;pointerEvents=0;collapsible=0;recursiveResize=0;shape=mxgraph.aws4.group;grIcon=mxgraph.aws4.group_security_group;grStroke=0;strokeColor=#00A4A6;fillColor=#E6F6F7;verticalAlign=top;align=left;spacingLeft=30;fontColor=#147EBA;dashed=0;" vertex="1" parent="v4m964qEt5kO4kLqrfOP-1">
          <mxGeometry x="335" y="310" width="130" height="130" as="geometry" />
        </mxCell>
        <mxCell id="v4m964qEt5kO4kLqrfOP-41" style="edgeStyle=orthogonalEdgeStyle;rounded=0;orthogonalLoop=1;jettySize=auto;html=1;entryX=0.5;entryY=0;entryDx=0;entryDy=0;" edge="1" parent="v4m964qEt5kO4kLqrfOP-1" source="v4m964qEt5kO4kLqrfOP-21" target="v4m964qEt5kO4kLqrfOP-38">
          <mxGeometry relative="1" as="geometry" />
        </mxCell>
        <mxCell id="v4m964qEt5kO4kLqrfOP-21" value="" style="sketch=0;points=[[0,0,0],[0.25,0,0],[0.5,0,0],[0.75,0,0],[1,0,0],[0,1,0],[0.25,1,0],[0.5,1,0],[0.75,1,0],[1,1,0],[0,0.25,0],[0,0.5,0],[0,0.75,0],[1,0.25,0],[1,0.5,0],[1,0.75,0]];points=[[0,0,0],[0.25,0,0],[0.5,0,0],[0.75,0,0],[1,0,0],[0,1,0],[0.25,1,0],[0.5,1,0],[0.75,1,0],[1,1,0],[0,0.25,0],[0,0.5,0],[0,0.75,0],[1,0.25,0],[1,0.5,0],[1,0.75,0]];outlineConnect=0;fontColor=#232F3E;fillColor=#E7157B;strokeColor=#ffffff;dashed=0;verticalLabelPosition=bottom;verticalAlign=top;align=center;html=1;fontSize=12;fontStyle=0;aspect=fixed;shape=mxgraph.aws4.resourceIcon;resIcon=mxgraph.aws4.autoscaling;" vertex="1" parent="v4m964qEt5kO4kLqrfOP-1">
          <mxGeometry x="261" y="280" width="38" height="38" as="geometry" />
        </mxCell>
        <mxCell id="v4m964qEt5kO4kLqrfOP-30" value="" style="sketch=0;outlineConnect=0;fontColor=#232F3E;gradientColor=none;fillColor=#8C4FFF;strokeColor=none;dashed=0;verticalLabelPosition=bottom;verticalAlign=top;align=center;html=1;fontSize=12;fontStyle=0;aspect=fixed;pointerEvents=1;shape=mxgraph.aws4.application_load_balancer;" vertex="1" parent="v4m964qEt5kO4kLqrfOP-1">
          <mxGeometry x="570" y="231" width="78" height="78" as="geometry" />
        </mxCell>
        <mxCell id="v4m964qEt5kO4kLqrfOP-38" value="Security Group" style="fontStyle=0;verticalAlign=top;align=center;spacingTop=-2;fillColor=none;rounded=0;whiteSpace=wrap;html=1;strokeColor=#FF0000;strokeWidth=2;dashed=1;container=1;collapsible=0;expand=0;recursiveResize=0;" vertex="1" parent="v4m964qEt5kO4kLqrfOP-1">
          <mxGeometry x="130" y="360" width="300" height="70" as="geometry" />
        </mxCell>
        <mxCell id="v4m964qEt5kO4kLqrfOP-39" style="edgeStyle=orthogonalEdgeStyle;rounded=0;orthogonalLoop=1;jettySize=auto;html=1;entryX=0.5;entryY=0;entryDx=0;entryDy=0;entryPerimeter=0;" edge="1" parent="v4m964qEt5kO4kLqrfOP-1" source="v4m964qEt5kO4kLqrfOP-12" target="v4m964qEt5kO4kLqrfOP-21">
          <mxGeometry relative="1" as="geometry" />
        </mxCell>
        <mxCell id="v4m964qEt5kO4kLqrfOP-45" style="edgeStyle=orthogonalEdgeStyle;rounded=0;orthogonalLoop=1;jettySize=auto;html=1;startArrow=classic;startFill=1;endArrow=none;endFill=0;" edge="1" parent="v4m964qEt5kO4kLqrfOP-1" source="v4m964qEt5kO4kLqrfOP-43">
          <mxGeometry relative="1" as="geometry">
            <mxPoint x="280" y="360" as="targetPoint" />
          </mxGeometry>
        </mxCell>
        <mxCell id="v4m964qEt5kO4kLqrfOP-43" value="" style="outlineConnect=0;dashed=0;verticalLabelPosition=bottom;verticalAlign=top;align=center;html=1;shape=mxgraph.aws3.ec2;fillColor=#F58534;gradientColor=none;" vertex="1" parent="v4m964qEt5kO4kLqrfOP-1">
          <mxGeometry x="150" y="368.5" width="46.5" height="53" as="geometry" />
        </mxCell>
        <mxCell id="v4m964qEt5kO4kLqrfOP-44" style="edgeStyle=orthogonalEdgeStyle;rounded=0;orthogonalLoop=1;jettySize=auto;html=1;entryX=0.5;entryY=0;entryDx=0;entryDy=0;startArrow=classic;startFill=1;endArrow=none;endFill=0;" edge="1" parent="v4m964qEt5kO4kLqrfOP-1" source="v4m964qEt5kO4kLqrfOP-42" target="v4m964qEt5kO4kLqrfOP-38">
          <mxGeometry relative="1" as="geometry">
            <Array as="points">
              <mxPoint x="280" y="395" />
            </Array>
          </mxGeometry>
        </mxCell>
        <mxCell id="v4m964qEt5kO4kLqrfOP-42" value="" style="outlineConnect=0;dashed=0;verticalLabelPosition=bottom;verticalAlign=top;align=center;html=1;shape=mxgraph.aws3.ec2;fillColor=#F58534;gradientColor=none;" vertex="1" parent="v4m964qEt5kO4kLqrfOP-1">
          <mxGeometry x="370" y="368.5" width="46.5" height="53" as="geometry" />
        </mxCell>
        <mxCell id="v4m964qEt5kO4kLqrfOP-20" value="" style="rounded=1;arcSize=10;dashed=1;fillColor=none;gradientColor=none;dashPattern=8 3 1 3;strokeWidth=2;strokeColor=#FF3399;" vertex="1" parent="v4m964qEt5kO4kLqrfOP-1">
          <mxGeometry x="70" y="300" width="440" height="160" as="geometry" />
        </mxCell>
        <mxCell id="v4m964qEt5kO4kLqrfOP-27" style="edgeStyle=orthogonalEdgeStyle;rounded=0;orthogonalLoop=1;jettySize=auto;html=1;exitX=0;exitY=0.5;exitDx=0;exitDy=0;" edge="1" parent="1" source="v4m964qEt5kO4kLqrfOP-1" target="v4m964qEt5kO4kLqrfOP-26">
          <mxGeometry relative="1" as="geometry" />
        </mxCell>
        <mxCell id="v4m964qEt5kO4kLqrfOP-25" value="" style="sketch=0;outlineConnect=0;fontColor=#232F3E;gradientColor=none;fillColor=#7AA116;strokeColor=none;dashed=0;verticalLabelPosition=bottom;verticalAlign=top;align=center;html=1;fontSize=12;fontStyle=0;aspect=fixed;pointerEvents=1;shape=mxgraph.aws4.bucket;" vertex="1" parent="1">
          <mxGeometry x="320" y="210" width="57.69" height="60" as="geometry" />
        </mxCell>
        <mxCell id="v4m964qEt5kO4kLqrfOP-28" style="edgeStyle=orthogonalEdgeStyle;rounded=0;orthogonalLoop=1;jettySize=auto;html=1;" edge="1" parent="1" source="v4m964qEt5kO4kLqrfOP-26" target="v4m964qEt5kO4kLqrfOP-25">
          <mxGeometry relative="1" as="geometry" />
        </mxCell>
        <mxCell id="v4m964qEt5kO4kLqrfOP-26" value="" style="sketch=0;outlineConnect=0;fontColor=#232F3E;gradientColor=none;fillColor=#DD344C;strokeColor=none;dashed=0;verticalLabelPosition=bottom;verticalAlign=top;align=center;html=1;fontSize=12;fontStyle=0;aspect=fixed;pointerEvents=1;shape=mxgraph.aws4.role;" vertex="1" parent="1">
          <mxGeometry x="309.84" y="343" width="78" height="44" as="geometry" />
        </mxCell>
        <mxCell id="v4m964qEt5kO4kLqrfOP-31" style="edgeStyle=orthogonalEdgeStyle;rounded=0;orthogonalLoop=1;jettySize=auto;html=1;" edge="1" parent="1" source="v4m964qEt5kO4kLqrfOP-29" target="v4m964qEt5kO4kLqrfOP-30">
          <mxGeometry relative="1" as="geometry" />
        </mxCell>
        <mxCell id="v4m964qEt5kO4kLqrfOP-29" value="" style="sketch=0;outlineConnect=0;fontColor=#232F3E;gradientColor=none;fillColor=#8C4FFF;strokeColor=none;dashed=0;verticalLabelPosition=bottom;verticalAlign=top;align=center;html=1;fontSize=12;fontStyle=0;aspect=fixed;pointerEvents=1;shape=mxgraph.aws4.internet_gateway;" vertex="1" parent="1">
          <mxGeometry x="1140" y="351" width="78" height="78" as="geometry" />
        </mxCell>
        <mxCell id="v4m964qEt5kO4kLqrfOP-35" style="edgeStyle=orthogonalEdgeStyle;rounded=0;orthogonalLoop=1;jettySize=auto;html=1;" edge="1" parent="1" source="v4m964qEt5kO4kLqrfOP-34" target="v4m964qEt5kO4kLqrfOP-29">
          <mxGeometry relative="1" as="geometry" />
        </mxCell>
        <mxCell id="v4m964qEt5kO4kLqrfOP-34" value="" style="sketch=0;points=[[0,0,0],[0.25,0,0],[0.5,0,0],[0.75,0,0],[1,0,0],[0,1,0],[0.25,1,0],[0.5,1,0],[0.75,1,0],[1,1,0],[0,0.25,0],[0,0.5,0],[0,0.75,0],[1,0.25,0],[1,0.5,0],[1,0.75,0]];outlineConnect=0;fontColor=#232F3E;fillColor=#01A88D;strokeColor=#ffffff;dashed=0;verticalLabelPosition=bottom;verticalAlign=top;align=center;html=1;fontSize=12;fontStyle=0;aspect=fixed;shape=mxgraph.aws4.resourceIcon;resIcon=mxgraph.aws4.desktop_and_app_streaming;" vertex="1" parent="1">
          <mxGeometry x="1290" y="351" width="78" height="78" as="geometry" />
        </mxCell>
        <mxCell id="v4m964qEt5kO4kLqrfOP-50" style="edgeStyle=orthogonalEdgeStyle;rounded=0;orthogonalLoop=1;jettySize=auto;html=1;" edge="1" parent="1" source="v4m964qEt5kO4kLqrfOP-46" target="v4m964qEt5kO4kLqrfOP-13">
          <mxGeometry relative="1" as="geometry" />
        </mxCell>
        <mxCell id="v4m964qEt5kO4kLqrfOP-46" value="" style="sketch=0;outlineConnect=0;fontColor=#232F3E;gradientColor=none;fillColor=#ED7100;strokeColor=none;dashed=0;verticalLabelPosition=bottom;verticalAlign=top;align=center;html=1;fontSize=12;fontStyle=0;aspect=fixed;pointerEvents=1;shape=mxgraph.aws4.elastic_ip_address;rotation=90;" vertex="1" parent="1">
          <mxGeometry x="566" y="190" width="48" height="20" as="geometry" />
        </mxCell>
        <mxCell id="v4m964qEt5kO4kLqrfOP-51" style="edgeStyle=orthogonalEdgeStyle;rounded=0;orthogonalLoop=1;jettySize=auto;html=1;" edge="1" parent="1" source="v4m964qEt5kO4kLqrfOP-47" target="v4m964qEt5kO4kLqrfOP-12">
          <mxGeometry relative="1" as="geometry" />
        </mxCell>
        <mxCell id="v4m964qEt5kO4kLqrfOP-47" value="" style="sketch=0;outlineConnect=0;fontColor=#232F3E;gradientColor=none;fillColor=#ED7100;strokeColor=none;dashed=0;verticalLabelPosition=bottom;verticalAlign=top;align=center;html=1;fontSize=12;fontStyle=0;aspect=fixed;pointerEvents=1;shape=mxgraph.aws4.elastic_ip_address;rotation=90;" vertex="1" parent="1">
          <mxGeometry x="806" y="190" width="48" height="20" as="geometry" />
        </mxCell>
        <mxCell id="v4m964qEt5kO4kLqrfOP-48" style="edgeStyle=orthogonalEdgeStyle;rounded=0;orthogonalLoop=1;jettySize=auto;html=1;" edge="1" parent="1" source="v4m964qEt5kO4kLqrfOP-30" target="v4m964qEt5kO4kLqrfOP-47">
          <mxGeometry relative="1" as="geometry">
            <Array as="points">
              <mxPoint x="1039" y="160" />
              <mxPoint x="826" y="160" />
            </Array>
          </mxGeometry>
        </mxCell>
        <mxCell id="v4m964qEt5kO4kLqrfOP-49" style="edgeStyle=orthogonalEdgeStyle;rounded=0;orthogonalLoop=1;jettySize=auto;html=1;" edge="1" parent="1" source="v4m964qEt5kO4kLqrfOP-30" target="v4m964qEt5kO4kLqrfOP-46">
          <mxGeometry relative="1" as="geometry">
            <Array as="points">
              <mxPoint x="1039" y="160" />
              <mxPoint x="584" y="160" />
            </Array>
          </mxGeometry>
        </mxCell>
      </root>
    </mxGraphModel>
  </diagram>
</mxfile>
